<svg width="15" height="14" viewBox="0 0 15 14" fill="none" xmlns="http://www.w3.org/2000/svg">
<path d="M2.9001 11.014C2.9001 11.014 3.04333 10.8884 3.14602 10.9684C3.15609 10.9763 3.16028 10.9876 3.15955 11.0018L12.5998 1.91694C12.593 1.91033 12.5942 1.90182 12.604 1.89523C12.6631 1.85529 12.9459 1.30826 12.8574 1.30538L12.018 2.07946C11.9343 2.13085 11.8808 2.15556 11.8496 2.16118C11.5439 2.40531 11.0329 2.93046 10.218 3.76939L11.8385 2.07547C11.898 1.96791 12.0495 1.79101 12.1053 1.72316C12.2797 1.51137 12.5592 1.2766 12.5592 1.2766L12.4325 1.26942C12.4325 1.26942 12.2412 1.43881 12.1584 1.51293C12.0755 1.58705 11.9777 1.57874 11.9777 1.57874C11.7317 1.8521 11.2124 2.17817 11.2124 2.17817L11.6396 1.5025C11.6396 1.5025 10.9607 2.06196 10.1736 2.60017C9.39443 3.13303 8.48974 3.63573 8.31144 3.74711C7.97148 3.95941 8.35664 3.50445 8.39933 3.27635C8.39933 3.27635 7.96257 3.87327 7.49493 4.25829C6.96516 4.69442 7.8029 3.62163 7.8029 3.62163L0.378223 10.8448L0.308174 10.9684C0.308174 10.9684 1.23258 10.0861 1.36181 10.0957C1.3779 10.0966 1.3936 10.1009 1.40786 10.1082L1.41032 10.1053L3.26848 8.37291C2.43196 9.18473 1.67543 9.9084 1.42356 10.1187C1.47984 10.1665 1.45462 10.2767 1.39163 10.345C1.31212 10.4314 0.467432 11.2151 0.394512 11.2784C0.321563 11.3418 0.318105 11.4097 0.318105 11.4097C0.348457 11.4673 0.775781 11.0741 0.83499 11.0356C0.900879 10.9927 0 11.918 0 11.918L0.13916 11.8509C0.13916 11.8509 0.715693 11.285 0.795205 11.3713C0.874717 11.4576 0.531797 11.7406 0.531797 11.7406C0.516856 11.8796 0.2954 12.0976 0.00993164 12.3304C0.00993164 12.3304 0.0397559 12.3832 0.13418 12.3112C0.228633 12.2393 1.93828 10.6615 1.93828 10.6615C1.93828 10.6615 2.23099 10.555 3.40116 9.44169C3.40116 9.44169 2.21921 10.6796 2.13214 10.791C1.90351 11.0836 1.15802 11.7166 1.15802 11.7166L1.14308 11.9564L0.427412 12.6517V12.7237L2.36572 10.9684L3.31494 10.0999L2.43381 11.0837L4.15831 9.51688L0.468223 13.1444C0.468223 13.1444 0.597949 13.0609 0.736289 13.0192C0.86168 12.9814 2.21561 11.7141 2.9001 11.014ZM4.11445 7.50611L6.15463 5.54508C6.15463 5.54508 5.78663 5.92812 4.77123 6.921L4.11445 7.50611ZM14.9746 0.475723C14.915 0.576416 12.85 3.19002 12.85 3.19002C12.85 3.19002 11.1875 5.21134 10.5463 6.3335C10.2802 6.65904 9.91231 6.91464 9.77104 7.07442C9.65499 7.20572 9.61565 6.99801 9.54738 7.07442C9.47912 7.15085 4.03066 12.5126 4.03066 12.5126L5.55897 10.6351L3.07644 13.0809V13.0233L4.35123 11.3545L2.26383 13.3326L2.62916 12.75L1.81655 13.4118L5.23093 9.73599C5.23093 9.73599 1.83144 13.1529 1.85382 13.0234C1.8762 12.8939 2.72605 11.7789 2.72605 11.7789C2.72605 11.7789 1.55563 12.9227 1.37669 13.0737C1.19774 13.2248 1.11214 13.0999 1.11214 13.0999C1.11214 13.0999 1.72131 12.5032 2.29535 11.9339C2.65981 11.5724 3.03949 11.2329 3.1362 11.0649L12.6316 1.92698C12.6948 1.9302 12.8396 1.88127 13.0562 1.65065C13.3942 1.29099 13.6775 1.00805 13.6775 1.00805L13.916 0.979272L14.7858 0.000979363C14.7858 0.000979363 14.92 -0.0134094 14.92 0.0681174C14.92 0.149644 15.0293 0.0633118 14.9746 0.159227C14.92 0.255143 14.8305 0.360641 14.9051 0.355864C14.9796 0.351058 15.0343 0.37503 14.9746 0.475723Z" fill="#FDAC07"/>
</svg>
